<?xml version="1.0"?>
<svg xmlns="http://www.w3.org/2000/svg" width="436" height="100" viewBox="0 0 218 50">
<path fill="#041E41" d="M0,50h50V0H0V50z M32,3.8c8.8,2.9,15.2,11.3,15.2,21.2c0,9.7-6.2,18.1-15.2,21.2V3.8z M25,2.7c1.6,0,3.3,0.2,4.7,0.5c0,11.3-11,20.6-22.3,20.6L3.2,23.8C3.5,12.2,13.1,2.7,25,2.7z M7.4,26.2c11.3,0,22.2,9.3,22.2,20.6c-1.4,0.3-3.2,0.5-4.7,0.5c-11.9,0-21.8-9.6-22.3-21.1H7.4z M66.7,29.4v-3.2h10.4v-4H66.7v-5.8h11.1v-4H62.5v16.8c0,4.3,1.8,7.2,6.1,7.8c0.1,0,0.2,0,0.2,0h0.1c0.4,0,0.9,0.1,1.3,0.1h7.9v-4h-7.8C68.9,33.1,66.7,32.4,66.7,29.4z M81.1,37.1h4.3V12.4h-4.3V37.1z M97.9,18.6c-5.4,0-9.4,3.7-9.4,9.5v0.1c0,5.6,3.9,9.3,9.5,9.3c2.7,0,5.2-0.7,7.6-3.2l-2.6-2.5c-1.4,1.4-2.7,2.1-4.8,2.1c-3.2,0-5.3-1.9-5.4-4.7h14c0.1-0.7,0.1-1.5,0.1-1.5C106.7,22.7,103.2,18.6,97.9,18.6z M92.8,26.2c0.2-2.2,2.4-3.9,5.1-3.9c2.5,0,4.5,1.8,4.5,3.9H92.8z M118.7,22.5c1.9,0,3.4,0.7,4.6,2l2.6-2.7c-2.1-2.2-4.5-3.1-7.2-3.1c-5.4,0-9.8,4-9.8,9.5s4.3,9.5,9.8,9.5c2.7,0,5.1-0.9,7.2-3.1l-2.6-2.7c-1.2,1.2-2.6,2-4.6,2c-3.1,0-5.5-2.4-5.5-5.6S115.6,22.5,118.7,22.5z M132.8,29.4h-0.1v-6.3h3.9v-3.9h-3.9v-6.9h-4.3v17.3l0,0c0.1,4,1.9,6.8,6.1,7.3c0.1,0,0.2,0,0.2,0h0.1c0.4,0,0.9,0.1,1.3,0.1h0.5l0-4h-0.4C135,33.1,132.8,32.4,132.8,29.4z M144.5,21.9v-2.7h-4.2V37.1h4.2v-9.4c0-2.9,1.9-4.8,4.8-4.8c0.7,0,1.3,0.1,1.8,0.2v-4.1c-0.2,0-0.8-0.1-1.3-0.1C147.3,18.9,145.3,20,144.5,21.9z M161.5,18.7c-5.4,0-9.8,4.1-9.8,9.5c0,5.4,4.3,9.5,9.8,9.5c5.4,0,9.8-4.1,9.8-9.5C171.3,22.8,166.9,18.7,161.5,18.7z M161.5,33.8c-3.2,0-5.5-2.5-5.5-5.6c0-3.2,2.4-5.6,5.5-5.6c3.1,0,5.5,2.4,5.5,5.6C167,31.3,164.6,33.8,161.5,33.8z M173.9,37.1h4.3V12.4h-4.3V37.1z M193.5,29.6c0,2.8-1.7,4-3.9,4s-3.9-1.2-3.9-4V19.2h-4.3v10.8c0,5.1,3.7,7.6,8.2,7.6c4.5,0,8.2-2.5,8.2-7.7V19.2h-4.3V29.6z M213.9,31.4l-2.7-3.8l3.3-4.5l2.8-3.9h-4.6l-3.9,5.4l-3.9-5.4h-4.6l2.6,3.6l3.5,4.8l-3.7,5.2l-3.1,4.3h4.6l4.5-6.3l4.5,6.3h4.6L213.9,31.4z"/>
</svg>
